<svg width="158" height="30" viewBox="0 0 158 30" fill="none" xmlns="http://www.w3.org/2000/svg">
<path d="M14.16 18.25L16.5 15.91L18.84 18.25L19.75 17.34L17.41 15L19.75 12.66L18.84 11.75L16.5 14.09L14.16 11.75L13.25 12.66L15.59 15L13.25 17.34L14.16 18.25ZM16.5 21.5C15.6008 21.5 14.7558 21.3294 13.965 20.9881C13.1742 20.6469 12.4862 20.1838 11.9012 19.5988C11.3162 19.0138 10.8531 18.3258 10.5119 17.535C10.1706 16.7442 10 15.8992 10 15C10 14.1008 10.1706 13.2558 10.5119 12.465C10.8531 11.6742 11.3162 10.9862 11.9012 10.4012C12.4862 9.81625 13.1742 9.35313 13.965 9.01187C14.7558 8.67062 15.6008 8.5 16.5 8.5C17.3992 8.5 18.2442 8.67062 19.035 9.01187C19.8258 9.35313 20.5138 9.81625 21.0988 10.4012C21.6838 10.9862 22.1469 11.6742 22.4881 12.465C22.8294 13.2558 23 14.1008 23 15C23 15.8992 22.8294 16.7442 22.4881 17.535C22.1469 18.3258 21.6838 19.0138 21.0988 19.5988C20.5138 20.1838 19.8258 20.6469 19.035 20.9881C18.2442 21.3294 17.3992 21.5 16.5 21.5ZM16.5 20.2C17.9517 20.2 19.1812 19.6962 20.1887 18.6887C21.1962 17.6812 21.7 16.4517 21.7 15C21.7 13.5483 21.1962 12.3188 20.1887 11.3112C19.1812 10.3038 17.9517 9.8 16.5 9.8C15.0483 9.8 13.8188 10.3038 12.8112 11.3112C11.8038 12.3188 11.3 13.5483 11.3 15C11.3 16.4517 11.8038 17.6812 12.8112 18.6887C13.8188 19.6962 15.0483 20.2 16.5 20.2Z" fill="#FF2D55"/>
<path d="M33.2876 19.084C33.1276 19.084 32.9996 19.048 32.9036 18.976C32.8076 18.904 32.7516 18.808 32.7356 18.688C32.7196 18.568 32.7436 18.432 32.8076 18.28L36.0596 10.984C36.1396 10.792 36.2396 10.656 36.3596 10.576C36.4876 10.496 36.6276 10.456 36.7796 10.456C36.9236 10.456 37.0556 10.496 37.1756 10.576C37.3036 10.656 37.4076 10.792 37.4876 10.984L40.7396 18.28C40.8116 18.432 40.8396 18.572 40.8236 18.7C40.8076 18.82 40.7556 18.916 40.6676 18.988C40.5796 19.052 40.4556 19.084 40.2956 19.084C40.1196 19.084 39.9796 19.04 39.8756 18.952C39.7716 18.864 39.6796 18.728 39.5996 18.544L38.7596 16.6L39.3236 16.936H34.2116L34.7636 16.6L33.9356 18.544C33.8556 18.736 33.7676 18.876 33.6716 18.964C33.5756 19.044 33.4476 19.084 33.2876 19.084ZM36.7556 11.92L34.9436 16.216L34.6436 15.928H38.8796L38.6036 16.216L36.7796 11.92H36.7556ZM44.0095 19.108C43.6575 19.108 43.2935 19.068 42.9175 18.988C42.5495 18.908 42.2095 18.772 41.8975 18.58C41.7935 18.508 41.7215 18.428 41.6815 18.34C41.6415 18.252 41.6255 18.164 41.6335 18.076C41.6495 17.98 41.6855 17.9 41.7415 17.836C41.8055 17.764 41.8815 17.72 41.9695 17.704C42.0655 17.688 42.1655 17.708 42.2695 17.764C42.5815 17.94 42.8815 18.064 43.1695 18.136C43.4575 18.2 43.7415 18.232 44.0215 18.232C44.4455 18.232 44.7655 18.156 44.9815 18.004C45.1975 17.852 45.3055 17.648 45.3055 17.392C45.3055 17.184 45.2335 17.024 45.0895 16.912C44.9455 16.792 44.7295 16.7 44.4415 16.636L43.3015 16.408C42.8055 16.304 42.4295 16.12 42.1735 15.856C41.9175 15.592 41.7895 15.256 41.7895 14.848C41.7895 14.48 41.8895 14.16 42.0895 13.888C42.2895 13.616 42.5695 13.408 42.9295 13.264C43.2895 13.112 43.7055 13.036 44.1775 13.036C44.5295 13.036 44.8615 13.08 45.1735 13.168C45.4855 13.256 45.7735 13.388 46.0375 13.564C46.1415 13.62 46.2095 13.696 46.2415 13.792C46.2735 13.88 46.2775 13.968 46.2535 14.056C46.2375 14.144 46.1975 14.224 46.1335 14.296C46.0695 14.36 45.9895 14.4 45.8935 14.416C45.8055 14.424 45.7055 14.4 45.5935 14.344C45.3535 14.192 45.1135 14.084 44.8735 14.02C44.6415 13.956 44.4095 13.924 44.1775 13.924C43.7535 13.924 43.4335 14.004 43.2175 14.164C43.0095 14.316 42.9055 14.524 42.9055 14.788C42.9055 14.988 42.9695 15.152 43.0975 15.28C43.2255 15.408 43.4255 15.5 43.6975 15.556L44.8375 15.784C45.3575 15.888 45.7495 16.064 46.0135 16.312C46.2855 16.56 46.4215 16.896 46.4215 17.32C46.4215 17.872 46.2015 18.308 45.7615 18.628C45.3215 18.948 44.7375 19.108 44.0095 19.108ZM48.37 19.084C48.178 19.084 48.03 19.032 47.926 18.928C47.822 18.816 47.77 18.664 47.77 18.472V11.068C47.77 10.868 47.822 10.716 47.926 10.612C48.03 10.508 48.178 10.456 48.37 10.456C48.562 10.456 48.71 10.508 48.814 10.612C48.926 10.716 48.982 10.868 48.982 11.068V15.7H49.006L51.25 13.468C51.378 13.34 51.494 13.24 51.598 13.168C51.702 13.096 51.838 13.06 52.006 13.06C52.174 13.06 52.302 13.104 52.39 13.192C52.478 13.28 52.522 13.388 52.522 13.516C52.522 13.636 52.462 13.76 52.342 13.888L49.966 16.24V15.676L52.558 18.256C52.686 18.384 52.746 18.512 52.738 18.64C52.73 18.768 52.678 18.876 52.582 18.964C52.486 19.044 52.366 19.084 52.222 19.084C52.038 19.084 51.89 19.048 51.778 18.976C51.674 18.904 51.55 18.796 51.406 18.652L49.006 16.324H48.982V18.472C48.982 18.88 48.778 19.084 48.37 19.084ZM57.9135 19.084C57.7055 19.084 57.5415 19.028 57.4215 18.916C57.3095 18.804 57.2535 18.64 57.2535 18.424V11.212C57.2535 10.996 57.3095 10.832 57.4215 10.72C57.5415 10.6 57.7095 10.54 57.9255 10.54H62.1975C62.3735 10.54 62.5015 10.584 62.5815 10.672C62.6695 10.752 62.7135 10.872 62.7135 11.032C62.7135 11.2 62.6695 11.328 62.5815 11.416C62.5015 11.504 62.3735 11.548 62.1975 11.548H58.5015V14.248H61.9575C62.1175 14.248 62.2415 14.292 62.3295 14.38C62.4255 14.46 62.4735 14.58 62.4735 14.74C62.4735 14.908 62.4255 15.036 62.3295 15.124C62.2415 15.212 62.1175 15.256 61.9575 15.256H58.5015V18.424C58.5015 18.864 58.3055 19.084 57.9135 19.084ZM66.0874 19.108C65.4954 19.108 64.9834 18.984 64.5514 18.736C64.1274 18.488 63.7954 18.136 63.5554 17.68C63.3154 17.224 63.1954 16.688 63.1954 16.072C63.1954 15.6 63.2634 15.18 63.3994 14.812C63.5354 14.444 63.7274 14.128 63.9754 13.864C64.2314 13.592 64.5354 13.388 64.8874 13.252C65.2474 13.108 65.6474 13.036 66.0874 13.036C66.6714 13.036 67.1754 13.16 67.5994 13.408C68.0314 13.656 68.3674 14.008 68.6074 14.464C68.8474 14.912 68.9674 15.448 68.9674 16.072C68.9674 16.536 68.8994 16.956 68.7634 17.332C68.6274 17.708 68.4314 18.028 68.1754 18.292C67.9274 18.556 67.6234 18.76 67.2634 18.904C66.9114 19.04 66.5194 19.108 66.0874 19.108ZM66.0874 18.172C66.4154 18.172 66.7034 18.092 66.9514 17.932C67.1994 17.772 67.3914 17.536 67.5274 17.224C67.6714 16.912 67.7434 16.528 67.7434 16.072C67.7434 15.384 67.5914 14.864 67.2874 14.512C66.9834 14.16 66.5834 13.984 66.0874 13.984C65.7514 13.984 65.4594 14.064 65.2114 14.224C64.9634 14.376 64.7674 14.608 64.6234 14.92C64.4874 15.232 64.4194 15.616 64.4194 16.072C64.4194 16.752 64.5714 17.272 64.8754 17.632C65.1794 17.992 65.5834 18.172 66.0874 18.172ZM70.9406 19.084C70.7406 19.084 70.5886 19.032 70.4846 18.928C70.3806 18.816 70.3286 18.664 70.3286 18.472V13.672C70.3286 13.472 70.3806 13.32 70.4846 13.216C70.5886 13.112 70.7326 13.06 70.9166 13.06C71.1086 13.06 71.2526 13.112 71.3486 13.216C71.4526 13.32 71.5046 13.472 71.5046 13.672V14.548H71.3846C71.5126 14.068 71.7486 13.704 72.0926 13.456C72.4366 13.208 72.8766 13.064 73.4126 13.024C73.5566 13.016 73.6686 13.052 73.7486 13.132C73.8366 13.212 73.8846 13.336 73.8926 13.504C73.9086 13.672 73.8726 13.808 73.7846 13.912C73.6966 14.008 73.5606 14.064 73.3766 14.08L73.1486 14.104C72.6286 14.152 72.2326 14.316 71.9606 14.596C71.6886 14.876 71.5526 15.26 71.5526 15.748V18.472C71.5526 18.664 71.5006 18.816 71.3966 18.928C71.3006 19.032 71.1486 19.084 70.9406 19.084ZM78.7252 19.084C78.5252 19.084 78.3692 19.028 78.2572 18.916C78.1532 18.804 78.1012 18.648 78.1012 18.448V11.176C78.1012 10.968 78.1572 10.812 78.2692 10.708C78.3812 10.596 78.5372 10.54 78.7372 10.54H81.6052C82.5172 10.54 83.2212 10.756 83.7172 11.188C84.2132 11.62 84.4612 12.232 84.4612 13.024C84.4612 13.536 84.3492 13.976 84.1252 14.344C83.9012 14.712 83.5732 14.992 83.1412 15.184C82.7172 15.376 82.2052 15.472 81.6052 15.472L81.7132 15.304H82.0252C82.3452 15.304 82.6212 15.384 82.8532 15.544C83.0932 15.704 83.3092 15.96 83.5012 16.312L84.5332 18.232C84.6132 18.376 84.6492 18.516 84.6412 18.652C84.6412 18.78 84.5932 18.884 84.4972 18.964C84.4092 19.044 84.2812 19.084 84.1132 19.084C83.9372 19.084 83.7932 19.048 83.6812 18.976C83.5772 18.896 83.4812 18.78 83.3932 18.628L82.1332 16.3C81.9652 15.988 81.7732 15.78 81.5572 15.676C81.3412 15.564 81.0572 15.508 80.7052 15.508H79.3492V18.448C79.3492 18.648 79.2972 18.804 79.1932 18.916C79.0892 19.028 78.9332 19.084 78.7252 19.084ZM79.3492 14.572H81.4012C82.0092 14.572 82.4692 14.444 82.7812 14.188C83.0932 13.932 83.2492 13.552 83.2492 13.048C83.2492 12.552 83.0932 12.176 82.7812 11.92C82.4692 11.664 82.0092 11.536 81.4012 11.536H79.3492V14.572ZM88.6977 19.108C88.0577 19.108 87.5057 18.988 87.0417 18.748C86.5857 18.5 86.2297 18.152 85.9737 17.704C85.7257 17.248 85.6017 16.708 85.6017 16.084C85.6017 15.476 85.7257 14.944 85.9737 14.488C86.2217 14.032 86.5617 13.676 86.9937 13.42C87.4257 13.164 87.9177 13.036 88.4697 13.036C88.8777 13.036 89.2417 13.104 89.5617 13.24C89.8817 13.368 90.1537 13.56 90.3777 13.816C90.6097 14.064 90.7817 14.368 90.8937 14.728C91.0137 15.088 91.0737 15.492 91.0737 15.94C91.0737 16.076 91.0337 16.18 90.9537 16.252C90.8737 16.316 90.7537 16.348 90.5937 16.348H86.5617V15.604H90.2577L90.0537 15.772C90.0537 15.372 89.9937 15.032 89.8737 14.752C89.7617 14.472 89.5897 14.26 89.3577 14.116C89.1337 13.964 88.8537 13.888 88.5177 13.888C88.1417 13.888 87.8217 13.976 87.5577 14.152C87.3017 14.328 87.1057 14.572 86.9697 14.884C86.8337 15.196 86.7657 15.56 86.7657 15.976V16.048C86.7657 16.752 86.9297 17.284 87.2577 17.644C87.5937 17.996 88.0777 18.172 88.7097 18.172C88.9497 18.172 89.2017 18.14 89.4657 18.076C89.7377 18.012 89.9937 17.904 90.2337 17.752C90.3697 17.672 90.4897 17.636 90.5937 17.644C90.7057 17.652 90.7937 17.688 90.8577 17.752C90.9297 17.816 90.9737 17.896 90.9897 17.992C91.0057 18.088 90.9897 18.188 90.9417 18.292C90.8937 18.388 90.8097 18.476 90.6897 18.556C90.4177 18.74 90.1017 18.88 89.7417 18.976C89.3817 19.064 89.0337 19.108 88.6977 19.108ZM98.511 19.108C98.143 19.108 97.783 19.08 97.431 19.024C97.079 18.968 96.747 18.884 96.435 18.772C96.123 18.652 95.843 18.508 95.595 18.34C95.475 18.252 95.391 18.152 95.343 18.04C95.303 17.928 95.291 17.82 95.307 17.716C95.331 17.604 95.379 17.508 95.451 17.428C95.523 17.348 95.611 17.3 95.715 17.284C95.819 17.26 95.935 17.292 96.063 17.38C96.423 17.612 96.803 17.784 97.203 17.896C97.603 18 98.039 18.052 98.511 18.052C99.191 18.052 99.691 17.932 100.011 17.692C100.339 17.444 100.503 17.124 100.503 16.732C100.503 16.412 100.387 16.16 100.155 15.976C99.923 15.784 99.535 15.632 98.991 15.52L97.707 15.256C96.947 15.096 96.379 14.832 96.003 14.464C95.635 14.096 95.451 13.6 95.451 12.976C95.451 12.6 95.527 12.256 95.679 11.944C95.839 11.632 96.059 11.364 96.339 11.14C96.619 10.908 96.955 10.732 97.347 10.612C97.739 10.492 98.167 10.432 98.631 10.432C99.127 10.432 99.591 10.496 100.023 10.624C100.463 10.752 100.855 10.948 101.199 11.212C101.303 11.284 101.371 11.376 101.403 11.488C101.443 11.592 101.451 11.696 101.427 11.8C101.411 11.904 101.367 11.992 101.295 12.064C101.223 12.136 101.131 12.18 101.019 12.196C100.907 12.204 100.783 12.164 100.647 12.076C100.335 11.868 100.015 11.72 99.687 11.632C99.367 11.536 99.011 11.488 98.619 11.488C98.227 11.488 97.883 11.548 97.587 11.668C97.299 11.788 97.075 11.956 96.915 12.172C96.763 12.388 96.687 12.644 96.687 12.94C96.687 13.276 96.795 13.544 97.011 13.744C97.227 13.944 97.587 14.096 98.091 14.2L99.363 14.464C100.163 14.632 100.759 14.892 101.151 15.244C101.543 15.596 101.739 16.064 101.739 16.648C101.739 17.024 101.663 17.364 101.511 17.668C101.359 17.964 101.143 18.22 100.863 18.436C100.583 18.652 100.243 18.82 99.843 18.94C99.451 19.052 99.007 19.108 98.511 19.108ZM105.112 19.108C104.64 19.108 104.244 19.02 103.924 18.844C103.612 18.668 103.376 18.408 103.216 18.064C103.064 17.712 102.988 17.272 102.988 16.744V13.672C102.988 13.464 103.04 13.312 103.144 13.216C103.248 13.112 103.396 13.06 103.588 13.06C103.78 13.06 103.928 13.112 104.032 13.216C104.144 13.312 104.2 13.464 104.2 13.672V16.756C104.2 17.228 104.296 17.576 104.488 17.8C104.68 18.024 104.984 18.136 105.4 18.136C105.856 18.136 106.224 17.984 106.504 17.68C106.792 17.368 106.936 16.96 106.936 16.456V13.672C106.936 13.464 106.988 13.312 107.092 13.216C107.196 13.112 107.348 13.06 107.548 13.06C107.74 13.06 107.888 13.112 107.992 13.216C108.096 13.312 108.148 13.464 108.148 13.672V18.472C108.148 18.88 107.952 19.084 107.56 19.084C107.376 19.084 107.232 19.032 107.128 18.928C107.024 18.816 106.972 18.664 106.972 18.472V17.452L107.128 17.716C106.968 18.164 106.712 18.508 106.36 18.748C106.008 18.988 105.592 19.108 105.112 19.108ZM113 19.108C112.488 19.108 112.044 18.98 111.668 18.724C111.292 18.46 111.04 18.112 110.912 17.68L111.044 17.464V18.472C111.044 18.664 110.992 18.816 110.888 18.928C110.784 19.032 110.64 19.084 110.456 19.084C110.264 19.084 110.116 19.032 110.012 18.928C109.908 18.816 109.856 18.664 109.856 18.472V11.068C109.856 10.868 109.908 10.716 110.012 10.612C110.116 10.508 110.264 10.456 110.456 10.456C110.648 10.456 110.796 10.508 110.9 10.612C111.012 10.716 111.068 10.868 111.068 11.068V14.428H110.924C111.052 14.004 111.304 13.668 111.68 13.42C112.056 13.164 112.496 13.036 113 13.036C113.528 13.036 113.984 13.16 114.368 13.408C114.752 13.656 115.048 14.004 115.256 14.452C115.472 14.9 115.58 15.44 115.58 16.072C115.58 16.688 115.472 17.228 115.256 17.692C115.048 18.148 114.748 18.5 114.356 18.748C113.972 18.988 113.52 19.108 113 19.108ZM112.7 18.172C113.036 18.172 113.328 18.092 113.576 17.932C113.824 17.772 114.016 17.536 114.152 17.224C114.288 16.912 114.356 16.528 114.356 16.072C114.356 15.384 114.204 14.864 113.9 14.512C113.604 14.16 113.204 13.984 112.7 13.984C112.372 13.984 112.08 14.064 111.824 14.224C111.576 14.376 111.384 14.608 111.248 14.92C111.112 15.232 111.044 15.616 111.044 16.072C111.044 16.752 111.196 17.272 111.5 17.632C111.804 17.992 112.204 18.172 112.7 18.172ZM117.57 19.084C117.378 19.084 117.23 19.032 117.126 18.928C117.022 18.816 116.97 18.664 116.97 18.472V13.672C116.97 13.472 117.022 13.32 117.126 13.216C117.23 13.112 117.374 13.06 117.558 13.06C117.75 13.06 117.894 13.112 117.99 13.216C118.094 13.32 118.146 13.472 118.146 13.672V14.656L118.014 14.392C118.174 13.968 118.422 13.636 118.758 13.396C119.094 13.156 119.498 13.036 119.97 13.036C120.458 13.036 120.854 13.152 121.158 13.384C121.462 13.616 121.67 13.972 121.782 14.452H121.614C121.766 14.012 122.026 13.668 122.394 13.42C122.762 13.164 123.19 13.036 123.678 13.036C124.126 13.036 124.494 13.124 124.782 13.3C125.07 13.468 125.286 13.728 125.43 14.08C125.574 14.424 125.646 14.86 125.646 15.388V18.472C125.646 18.664 125.59 18.816 125.478 18.928C125.374 19.032 125.226 19.084 125.034 19.084C124.842 19.084 124.694 19.032 124.59 18.928C124.486 18.816 124.434 18.664 124.434 18.472V15.448C124.434 14.952 124.346 14.588 124.17 14.356C124.002 14.124 123.722 14.008 123.33 14.008C122.89 14.008 122.542 14.16 122.286 14.464C122.03 14.768 121.902 15.188 121.902 15.724V18.472C121.902 18.664 121.85 18.816 121.746 18.928C121.642 19.032 121.494 19.084 121.302 19.084C121.11 19.084 120.958 19.032 120.846 18.928C120.742 18.816 120.69 18.664 120.69 18.472V15.448C120.69 14.952 120.606 14.588 120.438 14.356C120.27 14.124 119.99 14.008 119.598 14.008C119.158 14.008 118.81 14.16 118.554 14.464C118.306 14.768 118.182 15.188 118.182 15.724V18.472C118.182 18.88 117.978 19.084 117.57 19.084ZM127.94 19.072C127.748 19.072 127.6 19.016 127.496 18.904C127.392 18.784 127.34 18.62 127.34 18.412V13.732C127.34 13.524 127.392 13.364 127.496 13.252C127.6 13.14 127.748 13.084 127.94 13.084C128.132 13.084 128.28 13.14 128.384 13.252C128.496 13.364 128.552 13.524 128.552 13.732V18.412C128.552 18.62 128.5 18.784 128.396 18.904C128.292 19.016 128.14 19.072 127.94 19.072ZM127.94 11.836C127.7 11.836 127.512 11.776 127.376 11.656C127.248 11.536 127.184 11.368 127.184 11.152C127.184 10.928 127.248 10.76 127.376 10.648C127.512 10.528 127.7 10.468 127.94 10.468C128.18 10.468 128.364 10.528 128.492 10.648C128.628 10.76 128.696 10.928 128.696 11.152C128.696 11.368 128.628 11.536 128.492 11.656C128.364 11.776 128.18 11.836 127.94 11.836ZM132.31 19.108C131.958 19.108 131.594 19.068 131.218 18.988C130.85 18.908 130.51 18.772 130.198 18.58C130.094 18.508 130.022 18.428 129.982 18.34C129.942 18.252 129.926 18.164 129.934 18.076C129.95 17.98 129.986 17.9 130.042 17.836C130.106 17.764 130.182 17.72 130.27 17.704C130.366 17.688 130.466 17.708 130.57 17.764C130.882 17.94 131.182 18.064 131.47 18.136C131.758 18.2 132.042 18.232 132.322 18.232C132.746 18.232 133.066 18.156 133.282 18.004C133.498 17.852 133.606 17.648 133.606 17.392C133.606 17.184 133.534 17.024 133.39 16.912C133.246 16.792 133.03 16.7 132.742 16.636L131.602 16.408C131.106 16.304 130.73 16.12 130.474 15.856C130.218 15.592 130.09 15.256 130.09 14.848C130.09 14.48 130.19 14.16 130.39 13.888C130.59 13.616 130.87 13.408 131.23 13.264C131.59 13.112 132.006 13.036 132.478 13.036C132.83 13.036 133.162 13.08 133.474 13.168C133.786 13.256 134.074 13.388 134.338 13.564C134.442 13.62 134.51 13.696 134.542 13.792C134.574 13.88 134.578 13.968 134.554 14.056C134.538 14.144 134.498 14.224 134.434 14.296C134.37 14.36 134.29 14.4 134.194 14.416C134.106 14.424 134.006 14.4 133.894 14.344C133.654 14.192 133.414 14.084 133.174 14.02C132.942 13.956 132.71 13.924 132.478 13.924C132.054 13.924 131.734 14.004 131.518 14.164C131.31 14.316 131.206 14.524 131.206 14.788C131.206 14.988 131.27 15.152 131.398 15.28C131.526 15.408 131.726 15.5 131.998 15.556L133.138 15.784C133.658 15.888 134.05 16.064 134.314 16.312C134.586 16.56 134.722 16.896 134.722 17.32C134.722 17.872 134.502 18.308 134.062 18.628C133.622 18.948 133.038 19.108 132.31 19.108ZM138.123 19.108C137.771 19.108 137.407 19.068 137.031 18.988C136.663 18.908 136.323 18.772 136.011 18.58C135.907 18.508 135.835 18.428 135.795 18.34C135.755 18.252 135.739 18.164 135.747 18.076C135.763 17.98 135.799 17.9 135.855 17.836C135.919 17.764 135.995 17.72 136.083 17.704C136.179 17.688 136.279 17.708 136.383 17.764C136.695 17.94 136.995 18.064 137.283 18.136C137.571 18.2 137.855 18.232 138.135 18.232C138.559 18.232 138.879 18.156 139.095 18.004C139.311 17.852 139.419 17.648 139.419 17.392C139.419 17.184 139.347 17.024 139.203 16.912C139.059 16.792 138.843 16.7 138.555 16.636L137.415 16.408C136.919 16.304 136.543 16.12 136.287 15.856C136.031 15.592 135.903 15.256 135.903 14.848C135.903 14.48 136.003 14.16 136.203 13.888C136.403 13.616 136.683 13.408 137.043 13.264C137.403 13.112 137.819 13.036 138.291 13.036C138.643 13.036 138.975 13.08 139.287 13.168C139.599 13.256 139.887 13.388 140.151 13.564C140.255 13.62 140.323 13.696 140.355 13.792C140.387 13.88 140.391 13.968 140.367 14.056C140.351 14.144 140.311 14.224 140.247 14.296C140.183 14.36 140.103 14.4 140.007 14.416C139.919 14.424 139.819 14.4 139.707 14.344C139.467 14.192 139.227 14.084 138.987 14.02C138.755 13.956 138.523 13.924 138.291 13.924C137.867 13.924 137.547 14.004 137.331 14.164C137.123 14.316 137.019 14.524 137.019 14.788C137.019 14.988 137.083 15.152 137.211 15.28C137.339 15.408 137.539 15.5 137.811 15.556L138.951 15.784C139.471 15.888 139.863 16.064 140.127 16.312C140.399 16.56 140.535 16.896 140.535 17.32C140.535 17.872 140.315 18.308 139.875 18.628C139.435 18.948 138.851 19.108 138.123 19.108ZM142.483 19.072C142.291 19.072 142.143 19.016 142.039 18.904C141.935 18.784 141.883 18.62 141.883 18.412V13.732C141.883 13.524 141.935 13.364 142.039 13.252C142.143 13.14 142.291 13.084 142.483 13.084C142.675 13.084 142.823 13.14 142.927 13.252C143.039 13.364 143.095 13.524 143.095 13.732V18.412C143.095 18.62 143.043 18.784 142.939 18.904C142.835 19.016 142.683 19.072 142.483 19.072ZM142.483 11.836C142.243 11.836 142.055 11.776 141.919 11.656C141.791 11.536 141.727 11.368 141.727 11.152C141.727 10.928 141.791 10.76 141.919 10.648C142.055 10.528 142.243 10.468 142.483 10.468C142.723 10.468 142.907 10.528 143.035 10.648C143.171 10.76 143.239 10.928 143.239 11.152C143.239 11.368 143.171 11.536 143.035 11.656C142.907 11.776 142.723 11.836 142.483 11.836ZM147.345 19.108C146.753 19.108 146.241 18.984 145.809 18.736C145.385 18.488 145.053 18.136 144.813 17.68C144.573 17.224 144.453 16.688 144.453 16.072C144.453 15.6 144.521 15.18 144.657 14.812C144.793 14.444 144.985 14.128 145.233 13.864C145.489 13.592 145.793 13.388 146.145 13.252C146.505 13.108 146.905 13.036 147.345 13.036C147.929 13.036 148.433 13.16 148.857 13.408C149.289 13.656 149.625 14.008 149.865 14.464C150.105 14.912 150.225 15.448 150.225 16.072C150.225 16.536 150.157 16.956 150.021 17.332C149.885 17.708 149.689 18.028 149.433 18.292C149.185 18.556 148.881 18.76 148.521 18.904C148.169 19.04 147.777 19.108 147.345 19.108ZM147.345 18.172C147.673 18.172 147.961 18.092 148.209 17.932C148.457 17.772 148.649 17.536 148.785 17.224C148.929 16.912 149.001 16.528 149.001 16.072C149.001 15.384 148.849 14.864 148.545 14.512C148.241 14.16 147.841 13.984 147.345 13.984C147.009 13.984 146.717 14.064 146.469 14.224C146.221 14.376 146.025 14.608 145.881 14.92C145.745 15.232 145.677 15.616 145.677 16.072C145.677 16.752 145.829 17.272 146.133 17.632C146.437 17.992 146.841 18.172 147.345 18.172ZM152.186 19.084C151.994 19.084 151.846 19.032 151.742 18.928C151.638 18.816 151.586 18.664 151.586 18.472V13.672C151.586 13.472 151.638 13.32 151.742 13.216C151.846 13.112 151.99 13.06 152.174 13.06C152.366 13.06 152.51 13.112 152.606 13.216C152.71 13.32 152.762 13.472 152.762 13.672V14.608L152.63 14.392C152.806 13.944 153.082 13.608 153.458 13.384C153.834 13.152 154.266 13.036 154.754 13.036C155.218 13.036 155.602 13.124 155.906 13.3C156.218 13.468 156.45 13.728 156.602 14.08C156.754 14.424 156.83 14.86 156.83 15.388V18.472C156.83 18.664 156.778 18.816 156.674 18.928C156.57 19.032 156.422 19.084 156.23 19.084C156.03 19.084 155.878 19.032 155.774 18.928C155.67 18.816 155.618 18.664 155.618 18.472V15.46C155.618 14.956 155.518 14.588 155.318 14.356C155.126 14.124 154.822 14.008 154.406 14.008C153.918 14.008 153.526 14.16 153.23 14.464C152.942 14.768 152.798 15.176 152.798 15.688V18.472C152.798 18.88 152.594 19.084 152.186 19.084Z" fill="#FF2D55"/>
<path d="M32.3516 21.16H157.646V22.66H32.3516V21.16Z" fill="#FF2D55"/>
</svg>
