<svg width="20" height="20" viewBox="0 0 20 20" fill="none" xmlns="http://www.w3.org/2000/svg">
<path d="M4.16667 5L4.16667 11.6667C4.16667 12.4407 4.16667 12.8277 4.20944 13.1526C4.50483 15.3963 6.27037 17.1618 8.51404 17.4572C8.83895 17.5 9.22597 17.5 10 17.5V17.5C10.774 17.5 11.1611 17.5 11.486 17.4572C13.7296 17.1618 15.4952 15.3963 15.7906 13.1526C15.8333 12.8277 15.8333 12.4407 15.8333 11.6667L15.8333 5M4.16667 5H2.5M4.16667 5H7.5M15.8333 5H17.5M15.8333 5H12.5M7.5 5V5C7.5 4.53534 7.5 4.30302 7.53843 4.10982C7.69624 3.31644 8.31644 2.69624 9.10982 2.53843C9.30302 2.5 9.53535 2.5 10 2.5V2.5C10.4647 2.5 10.697 2.5 10.8902 2.53843C11.6836 2.69624 12.3038 3.31644 12.4616 4.10982C12.5 4.30302 12.5 4.53534 12.5 5V5M7.5 5L12.5 5M7.91667 7.91667L7.91667 13.75M12.0833 7.91667L12.0833 13.75" stroke="black" stroke-width="1.5" stroke-linecap="round" stroke-linejoin="round"/>
</svg>
